Coordinates
version=1
nRows=15
nColumns=42
inDegrees=yes

Units are S.I. units (second, meters, Newtons, ...)
If the header above contains a line with 'inDegrees', this indicates whether rotational values are in degrees (yes) or radians (no).

endheader
time	pelvis_tilt	pelvis_list	pelvis_rotation	pelvis_tx	pelvis_ty	pelvis_tz	hip_flexion_r	hip_adduction_r	hip_rotation_r	knee_angle_r	knee_angle_r_beta	ankle_angle_r	subtalar_angle_r	mtp_angle_r	hip_flexion_l	hip_adduction_l	hip_rotation_l	knee_angle_l	knee_angle_l_beta	ankle_angle_l	subtalar_angle_l	mtp_angle_l	lumbar_extension	lumbar_bending	lumbar_rotation	sh_tx_r	sh_ty_r	sh_tz_r	sh_plane_elev_r	sh_elev_r	sh_axial_rot_r	elbow_flex_r	pro_sup_r	sh_tx_l	sh_ty_l	sh_tz_l	sh_plane_elev_l	sh_elev_l	sh_axial_rot_l	elbow_flex_l	pro_sup_l
      9.65000000	     -5.57125078	     -0.47294977	     -1.78105711	      0.29148396	      0.93158047	     -0.03950373	      2.16076009	     -5.96159852	     -2.24315147	      1.42837108	      0.02492978	      3.73792793	      0.09147073	     -7.49999987	      3.32226334	     -3.79114146	     -9.10326332	      0.42448602	      0.00740868	      7.39570824	      1.87024529	     -7.49999987	      4.38454253	      4.11806834	     -6.61815328	     -0.01182180	     -0.01300085	     -0.00588963	    -13.22984579	      5.66582740	      7.55239374	     26.11831882	    111.38756373	     -0.02144671	     -0.00458928	     -0.00511978	     58.08602459	     74.16311670	    -31.25516443	     26.80050195	      3.28446318
      9.66666670	     -5.55900680	     -0.46174414	     -1.83957798	      0.29160291	      0.93210609	     -0.03940329	      2.12424109	     -5.95697339	     -2.30519880	      1.40953999	      0.02460111	      3.84680933	      0.32220005	     -7.49999987	      3.29314255	     -3.78998108	     -9.01003135	      0.42745726	      0.00746054	      7.31970026	      1.66238300	     -7.49999987	      4.30870001	      4.04765464	     -6.36771489	     -0.01219163	     -0.01332814	     -0.00586804	    -12.55411921	      5.69512893	      7.06512329	     25.89109312	    111.41935583	     -0.02155864	     -0.00465673	     -0.00494413	     58.92275958	     73.71879643	    -28.05318026	     25.21743946	      3.09826654
      9.68333330	     -5.66170302	     -0.43134011	     -1.83554988	      0.29174087	      0.93232740	     -0.03973923	      2.21823540	     -5.97366933	     -2.30784266	      1.37443947	      0.02398849	      3.72622383	      0.31705593	     -7.49999987	      3.39179511	     -3.76718210	     -8.97678377	      0.42247448	      0.00737357	      7.13747752	      1.59438386	     -7.49999987	      4.38688625	      3.97969388	     -6.47211589	     -0.01143043	     -0.01341204	     -0.00566924	    -12.28499298	      5.65762642	      7.36189558	     25.74396119	    109.61638038	     -0.02191786	     -0.00409683	     -0.00503636	     58.47060845	     73.01423867	    -28.11710023	     26.37239151	      4.24609252
      9.70000000	     -5.62155850	     -0.40698245	     -1.89712571	      0.29174530	      0.92951119	     -0.03939305	      2.17890252	     -5.99210420	     -2.20521707	      1.41343493	      0.02466909	      3.91659434	      0.35675628	     -7.49999987	      3.33081834	     -3.74315238	     -8.96468347	      0.43533736	      0.00759807	      7.27407413	      1.50443775	     -7.49999987	      4.43240015	      3.96804455	     -6.08558560	     -0.01193541	     -0.01321880	     -0.00572212	    -11.81437949	      5.76358146	      6.92408816	     25.58072807	    110.79769561	     -0.02043479	     -0.00384517	     -0.00482796	     58.85454867	     72.70232917	    -25.57430312	     25.81182051	      2.82669390
      9.71666670	     -5.58658696	     -0.40645662	     -1.91501472	      0.29177837	      0.93279161	     -0.03966568	      2.13208542	     -5.96995505	     -2.11257652	      1.43630664	      0.02506828	      3.89827817	      0.27574965	     -7.49999987	      3.28203644	     -3.73988288	     -8.81769097	      0.43965718	      0.00767347	      7.19122836	      1.23404721	     -7.49999987	      4.29056689	      3.93476507	     -5.58827632	     -0.01314846	     -0.01352847	     -0.00566182	    -12.05469308	      5.79163613	      6.81004413	     25.74141554	    111.48103271	     -0.02032596	     -0.00460197	     -0.00470516	     59.54773053	     72.77222509	    -23.49862445	     24.95512695	      3.02505713
      9.73333330	     -5.60475634	     -0.39098956	     -1.88443006	      0.29177873	      0.92991608	     -0.03925115	      2.11160807	     -5.97674523	     -2.14651823	      1.42693253	      0.02490467	      3.97632883	      0.26111722	     -7.49999987	      3.30965719	     -3.72334999	     -8.67984550	      0.44499398	      0.00776661	      7.24631986	      1.10572724	     -7.49999987	      4.38057109	      3.96973201	     -5.97523479	     -0.01155532	     -0.01328012	     -0.00569378	    -11.45260600	      5.89298768	      7.66954102	     25.86697718	    109.04859609	     -0.02229970	     -0.00399176	     -0.00481413	     58.54819171	     72.17120606	    -24.68013740	     26.58853139	      2.95185207
      9.75000000	     -5.62227342	     -0.37835996	     -1.91886335	      0.29164159	      0.92987200	     -0.03920895	      2.13444345	     -5.97438877	     -2.10732290	      1.45760134	      0.02543994	      4.01688458	      0.27896882	     -7.49999987	      3.32732577	     -3.71281319	     -8.66270714	      0.44457718	      0.00775934	      7.25751179	      0.97740848	     -7.49999987	      4.33455071	      3.94885824	     -5.37464470	     -0.01315532	     -0.01312170	     -0.00561502	    -11.32649092	      5.94553484	      6.97861701	     25.78123869	    111.45525303	     -0.02142803	     -0.00411096	     -0.00477992	     58.94026731	     71.72382899	    -23.12523239	     26.58227118	      2.94599370
      9.76666670	     -5.57021470	     -0.37895387	     -1.89124402	      0.29177121	      0.93056038	     -0.03919456	      2.07682450	     -5.97840384	     -2.02485451	      1.45356784	      0.02536954	      4.01747653	      0.13052097	     -7.49999987	      3.27525214	     -3.70045798	     -8.54397474	      0.45145218	      0.00787933	      7.24351107	      0.78983248	     -7.49999987	      4.21083712	      3.93970736	     -5.70721414	     -0.01180517	     -0.01299827	     -0.00563789	    -10.94517355	      5.93332742	      7.25444656	     25.85768575	    110.29315266	     -0.02188757	     -0.00395847	     -0.00479479	     58.55385819	     70.97809214	    -23.53204660	     27.04265188	      2.81868408
      9.78333330	     -5.37983534	     -0.33893500	     -1.93045905	      0.29147476	      0.93343625	     -0.03898938	      1.85420901	     -6.00715599	     -1.86735408	      1.35865135	      0.02371294	      4.00600185	     -0.01098614	     -7.49999987	      3.06700182	     -3.66709305	     -8.69290015	      0.43802176	      0.00764492	      7.22130142	      0.96750152	     -7.49999987	      3.76983235	      3.78806547	     -5.25321049	     -0.01325780	     -0.01340186	     -0.00558338	    -11.01406669	      5.87245565	      7.15399538	     26.12525131	    110.37319876	     -0.02172236	     -0.00461231	     -0.00478335	     59.40158938	     70.62040375	    -23.18240884	     26.10994972	      3.16947665
      9.80000000	     -5.66142413	     -0.30582039	     -1.94570376	      0.29178973	      0.93060726	     -0.03914978	      2.23426805	     -6.06081930	     -1.92059943	      1.41478745	      0.02469270	      4.04713636	      0.03087485	     -7.49999987	      3.37418546	     -3.62887194	     -8.62225722	      0.45574654	      0.00795428	      7.16126533	      0.75893364	     -7.49999987	      4.31221419	      3.78467675	     -5.51306115	     -0.01202042	     -0.01338656	     -0.00562989	     -9.94349940	      5.90756019	      6.77602550	     25.27928898	    111.38847131	     -0.02036621	     -0.00466521	     -0.00477482	     58.59707815	     69.19307698	    -24.53995903	     27.53185002	      3.02699332
      9.81666670	     -5.69020298	     -0.27312529	     -1.98245501	      0.29181702	      0.93366937	     -0.03938091	      2.31484896	     -6.11185765	     -1.91104028	      1.39581651	      0.02436159	      3.96162157	      0.00322435	     -7.49999987	      3.39824577	     -3.59703243	     -8.60351465	      0.44799313	      0.00781896	      7.03916662	      0.71946479	     -7.49999987	      4.37450574	      3.69909495	     -5.46554306	     -0.01158770	     -0.01375046	     -0.00560226	     -9.62144740	      5.89181761	      6.98410061	     24.98089221	    111.20844529	     -0.01938124	     -0.00540880	     -0.00477148	     58.52728373	     68.14890574	    -25.00868586	     27.84402787	      3.03516239
      9.83333330	     -5.70111507	     -0.25059052	     -2.01033181	      0.29183107	      0.93067903	     -0.03905291	      2.37508941	     -6.16304804	     -1.86619734	      1.38927277	      0.02424738	      3.88702262	     -0.18293953	     -7.49999987	      3.40464598	     -3.56199040	     -8.56449994	      0.44586829	      0.00778187	      7.01378493	      0.60658461	     -7.49999987	      4.37135762	      3.65736933	     -5.55622361	     -0.01142176	     -0.01374828	     -0.00561260	     -9.14542524	      5.95681647	      7.28567567	     25.02745660	    110.04896917	     -0.01932562	     -0.00577256	     -0.00485948	     58.21823610	     67.21987913	    -27.34553017	     28.94865945	      3.11882183
      9.85000000	     -5.73756897	     -0.20152263	     -2.04738471	      0.29179518	      0.93044245	     -0.03901354	      2.44591687	     -6.22130126	     -1.79936376	      1.38987925	      0.02425797	      3.79798922	     -0.18177688	     -7.49999987	      3.43456634	     -3.51480538	     -8.57443282	      0.45085559	      0.00786891	      6.99078495	      0.61000728	     -7.49999987	      4.46809119	      3.65583556	     -6.14831118	     -0.00943672	     -0.01364888	     -0.00565027	     -8.44218636	      6.03315974	      7.22263040	     25.15617340	    111.17885073	     -0.01969327	     -0.00576168	     -0.00492647	     57.43319340	     66.19147342	    -28.47770211	     29.49923591	      3.19975892
      9.86666670	     -5.73493748	     -0.15192034	     -2.13311939	      0.29202238	      0.93422658	     -0.03912135	      2.49352399	     -6.27846681	     -1.71709332	      1.42212454	      0.02482076	      3.68755422	     -0.26207275	     -7.49999987	      3.41182251	     -3.46523942	     -8.64580101	      0.44434615	      0.00775530	      6.93168562	      0.64834035	     -7.49999987	      4.44899170	      3.63713281	     -5.97974896	     -0.00972680	     -0.01377051	     -0.00565682	     -8.19079976	      6.10740571	      6.94377956	     25.08259962	    111.31379367	     -0.01970370	     -0.00576360	     -0.00501648	     57.82177757	     65.03604835	    -29.82699809	     29.73257963	      3.32705194
      9.88333330	     -5.69513900	     -0.13022699	     -2.10712908	      0.29185960	      0.93388283	     -0.03919969	      2.42516799	     -6.29821045	     -1.65545854	      1.38130205	      0.02410827	      3.50231652	     -0.30380310	     -7.49999987	      3.36171552	     -3.42763674	     -8.47677243	      0.43627103	      0.00761437	      6.76354902	      0.34646855	     -7.49999987	      4.35761412	      3.64697315	     -6.25813574	     -0.00870224	     -0.01366006	     -0.00568336	     -8.13557667	      6.14648064	      7.14774350	     25.23511401	    110.74104194	     -0.01996253	     -0.00583317	     -0.00511082	     57.67038879	     64.33208138	    -29.82490625	     29.80453044	      3.23692976
